<svg width="125" height="53" fill="none" xmlns="http://www.w3.org/2000/svg"><g clip-path="url(#clip0)" fill="#222221"><path d="M42.465 38.87V19.332H62.94c1.591 0 3.941.043 5.033-1.126.886-.949 1.041-2.153.99-3.484-.05-1.332-.553-2.625-1.33-3.36-.779-.736-1.964-1.1-3.555-1.1l-21.608.023V1.3h23.145a14.35 14.35 0 015.838 1.1 12.616 12.616 0 014.165 2.872 11.614 11.614 0 012.497 4.019c.544 1.479.822 3.042.82 4.618a12.697 12.697 0 01-.476 3.46 13.504 13.504 0 01-1.382 3.221 11.194 11.194 0 01-2.28 2.737 11.7 11.7 0 01-3.127 2.013l8.276 13.526h-10.96l-6.603-10.545h-9.535l.032 10.549H42.465zM16.317 1.405l5.043 17.928H5.474L0 38.975h10.68l3.004-10.68H23.83l3.004 10.68H37.57L26.997 1.405h-10.68zm107.239 10.491a18.003 18.003 0 00-4.123-6.356 18.465 18.465 0 00-6.398-4.092 24.326 24.326 0 00-16.534 0A17.865 17.865 0 0086.05 11.9a22.534 22.534 0 00-1.428 8.23c-.04 2.83.45 5.642 1.444 8.292a18.493 18.493 0 004.096 6.387 18.024 18.024 0 006.356 4.12 24.325 24.325 0 0016.533 0 18.025 18.025 0 0010.506-10.507A22.674 22.674 0 00125 20.13a22.537 22.537 0 00-1.444-8.234zm-9.712 12.852a9.572 9.572 0 01-1.886 3.484 8.513 8.513 0 01-3.054 2.238c-1.332.547-2.764.81-4.204.774-3.128 0-5.5-1.009-7.119-3.027-1.618-2.018-2.428-4.693-2.43-8.025 0-3.309.81-5.982 2.43-8.021 1.621-2.039 3.994-3.058 7.119-3.058a10.32 10.32 0 014.204.793 8.353 8.353 0 013.054 2.265 9.782 9.782 0 011.886 3.519c.43 1.461.641 2.978.627 4.502a15.676 15.676 0 01-.627 4.556zM1.46 51.873a4.312 4.312 0 010-5.837 3.761 3.761 0 012.81-1.162 3.987 3.987 0 012.562.805v.55a3.967 3.967 0 00-2.527-.875 3.293 3.293 0 00-2.466 1.022 3.809 3.809 0 000 5.118 3.285 3.285 0 002.42 1.01 3.293 3.293 0 002.484-.933v-3.217h.52v3.41A3.89 3.89 0 014.257 53a3.783 3.783 0 01-2.799-1.127zm28.235.991v-7.87h3.484c1.494 0 2.396.82 2.396 2.067 0 1.127-.712 1.936-1.959 2.071l2.586 3.732h-.588l-2.59-3.7h-2.81v3.696l-.52.004zm.518-4.18h2.923c1.216 0 1.936-.578 1.936-1.611 0-1.034-.709-1.595-1.936-1.595h-2.923v3.205zm28.55 3.158a4.359 4.359 0 010-5.806 3.747 3.747 0 012.802-1.162 3.707 3.707 0 012.787 1.161 4.317 4.317 0 010 5.807 3.695 3.695 0 01-2.787 1.162 3.74 3.74 0 01-2.802-1.162zm2.802.662a3.185 3.185 0 002.408-1.022 3.817 3.817 0 000-5.106 3.348 3.348 0 00-4.816 0 3.817 3.817 0 000 5.106 3.185 3.185 0 002.393 1.022h.015zm26.919-.414a3.635 3.635 0 01-.863-2.586v-4.51h.515v4.51c0 1.89 1.003 3 2.632 3 1.63 0 2.621-1.11 2.621-3v-4.51h.519v4.51a3.655 3.655 0 01-.867 2.586 3.306 3.306 0 01-4.557 0zm27.903.774v-7.87h3.271c1.548 0 2.431.844 2.431 2.114s-.898 2.125-2.431 2.125h-2.752v3.631h-.519zm.519-4.115h2.709c1.247 0 1.955-.596 1.955-1.641s-.708-1.63-1.955-1.63h-2.709v3.271z"/></g><defs><clipPath id="clip0"><path fill="#fff" d="M0 0h125v53H0z"/></clipPath></defs></svg>