<svg width="125" height="53" fill="none" xmlns="http://www.w3.org/2000/svg"><g clip-path="url(#clip0)" fill="#fff"><path d="M42.465 38.87V19.333H62.94c1.591 0 3.941.042 5.033-1.127.886-.948 1.041-2.152.99-3.484-.05-1.332-.553-2.625-1.33-3.36-.779-.736-1.964-1.1-3.555-1.1l-21.608.024V1.3h23.145a14.35 14.35 0 015.837 1.1 12.615 12.615 0 014.165 2.872 11.615 11.615 0 012.497 4.019c.544 1.479.822 3.042.82 4.618a12.698 12.698 0 01-.476 3.46 13.508 13.508 0 01-1.382 3.222 11.194 11.194 0 01-2.28 2.736 11.7 11.7 0 01-3.127 2.013l8.276 13.526H68.986l-6.604-10.545h-9.534l.03 10.55H42.466zM16.317 1.405l5.043 17.927H5.474L0 38.975h10.68l3.004-10.68H23.83l3.004 10.68H37.57L26.997 1.405h-10.68zm107.239 10.491a18.003 18.003 0 00-4.123-6.356 18.465 18.465 0 00-6.398-4.092 24.326 24.326 0 00-16.534 0A17.865 17.865 0 0086.05 11.9a22.532 22.532 0 00-1.429 8.23c-.04 2.83.45 5.642 1.444 8.292a18.493 18.493 0 004.096 6.387 18.024 18.024 0 006.356 4.12 24.325 24.325 0 0016.533 0 18.039 18.039 0 0010.506-10.507A22.674 22.674 0 00125 20.13a22.516 22.516 0 00-1.444-8.234zm-9.712 12.852a9.572 9.572 0 01-1.886 3.484 8.513 8.513 0 01-3.054 2.238c-1.332.547-2.764.81-4.204.774-3.128 0-5.5-1.009-7.119-3.027-1.618-2.018-2.428-4.693-2.43-8.025 0-3.309.81-5.982 2.43-8.021 1.621-2.039 3.994-3.058 7.119-3.058a10.32 10.32 0 014.204.793 8.353 8.353 0 013.054 2.265 9.782 9.782 0 011.886 3.519c.43 1.461.641 2.978.627 4.502a15.676 15.676 0 01-.627 4.556zM1.46 51.873a4.312 4.312 0 010-5.837 3.764 3.764 0 012.81-1.162 3.987 3.987 0 012.562.806v.55a3.968 3.968 0 00-2.527-.876 3.295 3.295 0 00-2.466 1.022 3.81 3.81 0 000 5.118 3.288 3.288 0 002.42 1.01 3.294 3.294 0 002.484-.932v-3.217h.519v3.41A3.89 3.89 0 014.258 53a3.78 3.78 0 01-2.799-1.127zm28.235.991v-7.87h3.484c1.494 0 2.396.821 2.396 2.068 0 1.126-.712 1.935-1.959 2.07l2.586 3.733h-.588l-2.59-3.701h-2.81v3.697l-.52.004zm.518-4.18h2.923c1.216 0 1.936-.577 1.936-1.61 0-1.034-.709-1.596-1.936-1.596h-2.923v3.206zm28.55 3.158a4.359 4.359 0 010-5.806 3.749 3.749 0 012.802-1.162 3.709 3.709 0 012.787 1.162 4.317 4.317 0 010 5.806 3.697 3.697 0 01-2.787 1.162 3.74 3.74 0 01-2.802-1.162zm2.802.662a3.184 3.184 0 002.408-1.022 3.817 3.817 0 000-5.106 3.349 3.349 0 00-4.816 0 3.817 3.817 0 000 5.106 3.187 3.187 0 002.393 1.022h.015zm26.919-.414a3.635 3.635 0 01-.863-2.586v-4.51h.515v4.51c0 1.89 1.003 3 2.632 3 1.63 0 2.621-1.11 2.621-3v-4.51h.519v4.51a3.654 3.654 0 01-.867 2.586 3.306 3.306 0 01-4.557 0zm27.903.774v-7.87h3.271c1.548 0 2.431.844 2.431 2.114s-.898 2.125-2.431 2.125h-2.752v3.632h-.519zm.519-4.115h2.709c1.247 0 1.955-.596 1.955-1.641s-.708-1.63-1.955-1.63h-2.709v3.271z"/></g><defs><clipPath id="clip0"><path fill="#fff" d="M0 0h125v53H0z"/></clipPath></defs></svg>