<svg width="38" height="38" fill="none" xmlns="http://www.w3.org/2000/svg"><g clip-path="url(#clip0)"><path d="M23.156 8.313h-3.168c-4.035-.04-4.55 2.457-4.55 5.16v1.965h-1.782a.528.528 0 00-.594.594v3.563a.529.529 0 00.594.593h1.781v8.907a.533.533 0 00.598.593h3.628c.35.04.634-.243.522-.593l.002-8.907h2.97a.529.529 0 00.593-.593v-3.563a.528.528 0 00-.594-.594h-2.972l.003-1.781c.115-.759.115-.635.82-.594h2.124c.165-.037.341-.016.465-.136a.482.482 0 00.153-.457V8.906a.528.528 0 00-.593-.594zm-.635 3.496l-1.49-.057c-1.843 0-1.998 1.001-1.998 2.026l-.005 2.252a.633.633 0 00.635.635h2.9v2.294h-2.898a.636.636 0 00-.636.634v8.908h-2.404v-8.907c0-.35-.239-.634-.59-.634H14.25v-2.294h1.785a.634.634 0 00.448-.185c.12-.12.14-.282.14-.45v-2.56c0-2.662.539-3.93 3.364-3.93h2.533v2.268z" fill="#13100A"/><rect x="1" y="1" width="36" height="36" rx="9" stroke="#13100A" stroke-width="2"/></g><defs><clipPath id="clip0"><path fill="#fff" d="M0 0h38v38H0z"/></clipPath></defs></svg>