<svg width="40" height="41" fill="none" xmlns="http://www.w3.org/2000/svg"><path d="M12.507 35.965c-5.475-2.579-9.393-7.903-9.995-14.199H0C.854 32.08 9.477 40.184 20.008 40.184l1.105-.05-6.379-6.38-2.227 2.21zm1.49-10.917c-.318 0-.619-.05-.87-.134-.268-.1-.486-.218-.67-.402a1.658 1.658 0 01-.435-.62c-.1-.234-.15-.502-.15-.786H9.693c0 .603.118 1.138.352 1.59.235.453.553.838.938 1.156.402.301.854.536 1.373.686a5.052 5.052 0 001.607.252c.62 0 1.205-.084 1.725-.252a4.082 4.082 0 001.39-.736 3.32 3.32 0 00.92-1.206 3.912 3.912 0 00.335-1.624c0-.318-.034-.636-.117-.938a2.795 2.795 0 00-.385-.854 3.009 3.009 0 00-.67-.72 3.442 3.442 0 00-1.021-.519 3.515 3.515 0 001.49-1.255c.167-.252.284-.503.368-.77.084-.268.117-.536.117-.804 0-.603-.1-1.139-.301-1.608a2.981 2.981 0 00-.854-1.155c-.335-.318-.787-.552-1.29-.72a6.101 6.101 0 00-1.707-.234c-.603 0-1.155.083-1.674.268a4.26 4.26 0 00-1.323.753 3.765 3.765 0 00-.854 1.122c-.2.435-.301.904-.301 1.423h2.176c0-.285.05-.536.151-.753.1-.218.234-.419.419-.57a2 2 0 01.636-.368 2.44 2.44 0 01.803-.134c.67 0 1.172.168 1.49.52.319.334.486.82.486 1.439 0 .301-.05.57-.134.82a1.457 1.457 0 01-.418.62 2.125 2.125 0 01-.687.402c-.268.1-.603.15-.97.15h-1.29v1.725h1.29c.367 0 .702.034 1.004.117.301.084.552.218.753.385.201.184.368.402.486.67.117.268.167.586.167.954 0 .687-.2 1.206-.586 1.558-.385.385-.92.552-1.59.552zm14.316-9.912a5.577 5.577 0 00-1.909-1.29c-.72-.3-1.54-.451-2.444-.451h-3.952V26.79h3.851c.921 0 1.775-.151 2.529-.453.753-.301 1.406-.72 1.942-1.272a5.652 5.652 0 001.239-1.993c.285-.787.435-1.657.435-2.628v-.67c0-.971-.15-1.842-.435-2.629a5.852 5.852 0 00-1.256-2.009zm-.653 5.291c0 .703-.084 1.323-.234 1.892-.168.553-.402 1.038-.72 1.423a3.13 3.13 0 01-1.189.888c-.486.2-1.038.3-1.658.3h-1.523v-9.66h1.624c1.205 0 2.126.385 2.746 1.155.636.77.954 1.875.954 3.332v.67zM20.008 0l-1.105.05 6.38 6.38 2.226-2.227c5.475 2.595 9.394 7.902 9.98 14.198H40C39.163 8.104 30.54 0 20.008 0z" fill="#FB0B1D"/></svg>